<?xml version="1.0" encoding="UTF-8"?>
<svg width="80px" height="80px" viewBox="0 0 80 80" version="1.1" xmlns="http://www.w3.org/2000/svg" xmlns:xlink="http://www.w3.org/1999/xlink">
    <!-- Generator: Sketch 52.2 (67145) - http://www.bohemiancoding.com/sketch -->
    <title>Combined Shape</title>
    <desc>Created with Sketch.</desc>
    <g id="Page-1" stroke="none" stroke-width="1" fill="none" fill-rule="evenodd">
        <g id="My-work-–-single" transform="translate(-920.000000, 0.000000)">
            <g id="Menu" transform="translate(920.000000, 0.000000)" fill="#F32550" fill-rule="nonzero">
                <path d="M0,0 L80,0 L80,80 L0,80 L0,0 Z M28,58 L40.6,58 C47.2,58 52.3,53.8 52.3,47.65 C52.3,41.35 47.35,39.55 46.85,39.45 C47.35,39.3 50.5,37.25 50.5,33 C50.5,25.65 45.05,23 39.35,23 L28,23 L28,58 Z M40.4,52.3 L34,52.3 L34,43 L40.4,43 C43.7,43 46.2,44.35 46.2,47.65 C46.2,50.95 43.7,52.3 40.4,52.3 Z M34,37.3 L34,28.7 L39.15,28.7 C42.1,28.7 44.4,29.95 44.4,33 C44.4,36.05 42.5,37.3 39.15,37.3 L34,37.3 Z" id="Combined-Shape"></path>
            </g>
            <g id="Page"></g>
            <g id="Page"></g>
        </g>
    </g>
</svg>