<svg xmlns="http://www.w3.org/2000/svg" viewBox="0 0 762.53 13.43"><defs><style>.cls-1{fill:#f32550;}</style></defs><title>Asset 3</title><g id="Layer_2" data-name="Layer 2"><g id="Layer_1-2" data-name="Layer 1"><polygon class="cls-1" points="726.24 0.09 725.94 0 689.65 11.34 653.66 0.09 653.36 0 617.08 11.34 581.09 0.09 580.79 0 544.51 11.34 508.52 0.09 508.23 0 471.95 11.34 435.96 0.09 435.66 0 399.38 11.34 363.39 0.09 363.1 0 326.81 11.34 290.83 0.09 290.53 0 254.25 11.34 218.27 0.09 217.97 0 181.69 11.34 145.71 0.09 145.41 0 109.13 11.34 73.15 0.09 72.85 0 36.58 11.34 0.6 0.09 0 2 36.58 13.44 72.85 2.1 108.83 13.34 109.13 13.44 145.41 2.1 181.39 13.34 181.69 13.44 217.97 2.1 253.95 13.34 254.25 13.44 290.53 2.1 326.52 13.34 326.81 13.44 363.1 2.1 399.08 13.34 399.38 13.44 435.66 2.1 471.65 13.34 471.95 13.44 508.23 2.1 544.21 13.34 544.51 13.44 580.79 2.1 616.78 13.34 617.08 13.44 653.36 2.1 689.35 13.34 689.65 13.44 725.94 2.1 761.93 13.34 762.53 11.43 726.24 0.09"/></g></g></svg>